<svg viewBox="0 0 25 25" xmlns="http://www.w3.org/2000/svg">
  <path
    d="M23.9761 6.72362C23.8381 6.21459 23.5692 5.75055 23.1963 5.37761C22.8233 5.00467 22.3593 4.73581 21.8503 4.59774C19.9865 4.08887 12.485 4.08887 12.485 4.08887C12.485 4.08887 4.98312 4.10387 3.119 4.61274C2.60997 4.75081 2.14594 5.01967 1.77299 5.39261C1.40005 5.76555 1.13119 6.22959 0.993125 6.73862C0.5 8.60274 0.5 12.5001 0.5 12.5001C0.5 12.5001 0.5 16.3975 1.0085 18.2766C1.14657 18.7856 1.41543 19.2497 1.78837 19.6226C2.16131 19.9956 2.62535 20.2644 3.13438 20.4025C4.99813 20.9114 12.5 20.9114 12.5 20.9114C12.5 20.9114 20.0019 20.9114 21.866 20.4029C22.375 20.2648 22.8391 19.9959 23.212 19.623C23.5849 19.2501 23.8538 18.786 23.9919 18.277C24.5 16.4129 24.5 12.5001 24.5 12.5001C24.5 12.5001 24.485 8.60274 23.9761 6.72362Z"
    fill="#FF0000" />
  <path d="M10.097 16.1046L16.3201 12.5001L10.0966 8.89562L10.097 16.1046Z" fill="white" />
</svg>